<?xml version="1.0" encoding="utf-8"?>
<!-- Generator: Adobe Illustrator 16.0.0, SVG Export Plug-In . SVG Version: 6.00 Build 0)  -->
<!DOCTYPE svg PUBLIC "-//W3C//DTD SVG 1.1//EN" "http://www.w3.org/Graphics/SVG/1.1/DTD/svg11.dtd">
<svg version="1.1" id="Layer_1" xmlns="http://www.w3.org/2000/svg" xmlns:xlink="http://www.w3.org/1999/xlink" x="0px" y="0px"
	 width="256px" height="256px" viewBox="0 0 256 256" enable-background="new 0 0 256 256" xml:space="preserve">
<g>
	<g>
		<path fill="#272727" d="M27.844,57.891v140.219h200.312V57.891H27.844z M128,134.729L63.084,77.922h129.832L128,134.729z
			 M107.088,143.043L128,161.333l20.911-18.29l35.035,35.035H72.053L107.088,143.043z M47.875,173.931V91.224l44.112,38.596
			L47.875,173.931z M164.014,129.819l44.111-38.596v82.707L164.014,129.819z"/>
	</g>
</g>
<path display="none" fill="#272727" d="M228,65.974c-7.358,3.264-15.267,5.469-23.566,6.461
	c8.471-5.078,14.978-13.119,18.041-22.701c-7.929,4.703-16.71,8.117-26.057,9.957c-7.484-7.975-18.148-12.957-29.95-12.957
	c-22.66,0-41.033,18.371-41.033,41.031c0,3.216,0.363,6.348,1.062,9.351c-34.102-1.711-64.336-18.047-84.574-42.872
	c-3.532,6.06-5.556,13.108-5.556,20.628c0,14.236,7.244,26.795,18.254,34.153c-6.726-0.213-13.053-2.059-18.585-5.132
	c-0.004,0.171-0.004,0.343-0.004,0.516c0,19.88,14.144,36.464,32.915,40.234c-3.443,0.938-7.068,1.439-10.81,1.439
	c-2.644,0-5.214-0.258-7.72-0.736c5.222,16.301,20.375,28.165,38.331,28.495c-14.043,11.006-31.735,17.565-50.96,17.565
	c-3.312,0-6.578-0.194-9.788-0.574c18.159,11.643,39.727,18.437,62.899,18.437c75.473,0,116.746-62.524,116.746-116.747
	c0-1.779-0.04-3.548-0.119-5.309C215.543,81.429,222.499,74.202,228,65.974z"/>
<path id="LinkedIn__x28_alt_x29_" display="none" fill="#272727" d="M198.906,46.028H58.147c-6.74,0-12.204,5.297-12.204,11.833
	v141.489c0,6.536,5.465,11.837,12.204,11.837h140.759c6.74,0,12.197-5.303,12.197-11.837V57.861
	C211.104,51.326,205.646,46.028,198.906,46.028z M96.016,184.277H71.061V109.71h24.955V184.277z M83.541,99.523h-0.167
	c-8.368,0-13.793-5.723-13.793-12.888c0-7.309,5.584-12.877,14.118-12.877c8.535,0,13.785,5.566,13.951,12.877
	C97.649,93.802,92.235,99.523,83.541,99.523z M185.969,184.277h-24.947v-39.895c0-10.026-3.613-16.866-12.635-16.866
	c-6.903,0-11,4.614-12.797,9.069c-0.669,1.593-0.832,3.816-0.832,6.041v41.65h-24.942c0,0,0.326-67.575,0-74.569h24.944v10.572
	c3.312-5.08,9.229-12.326,22.479-12.326c16.419,0,28.73,10.651,28.73,33.567V184.277z M134.599,120.518
	c0.043-0.07,0.104-0.154,0.161-0.235v0.235H134.599z"/>
</svg>
