<?xml version="1.0" encoding="utf-8"?>
<!-- Generator: Adobe Illustrator 15.0.2, SVG Export Plug-In . SVG Version: 6.00 Build 0)  -->
<!DOCTYPE svg PUBLIC "-//W3C//DTD SVG 1.1//EN" "http://www.w3.org/Graphics/SVG/1.1/DTD/svg11.dtd">
<svg version="1.1" id="Group_1_copy_52_1_" xmlns="http://www.w3.org/2000/svg" xmlns:xlink="http://www.w3.org/1999/xlink" x="0px"
	 y="0px" width="2048px" height="852px" viewBox="0 0 2048 852" enable-background="new 0 0 2048 852" xml:space="preserve">
<g id="C">
	<g>
		<path fill="#535353" d="M1712.085,704.346c3.715,17.066,10.855,31.453,21.434,43.145c10.577,11.69,25.33,17.536,44.258,17.536
			c16.336,0,30.34-2.879,42.031-8.629c11.69-5.759,21.346-13.831,28.948-24.217c7.611-10.395,13.273-22.921,16.979-37.577
			c3.714-14.666,5.566-30.715,5.566-48.155c0-19.302-1.948-36.838-5.845-52.608c-3.897-15.779-9.742-29.322-17.536-40.64
			c-7.794-11.325-17.623-20.041-29.506-26.165c-11.873-6.123-25.608-9.186-41.195-9.186c-19.294,0-34.977,5.846-47.042,17.536
			c-12.056,11.691-20.128,27.001-24.217,45.929l-88.516-32.846c11.883-35.629,31.732-63.377,59.567-83.228
			c27.835-19.858,61.794-29.783,101.877-29.783c29.696,0,56.227,4.731,79.608,14.196c23.382,9.464,43.24,23.189,59.567,41.195
			c16.336,17.997,28.861,39.987,37.577,65.97c8.725,25.974,13.083,55.296,13.083,87.959c0,31.915-4.541,60.402-13.64,85.454
			c-9.09,25.052-21.989,46.293-38.69,63.742c-16.701,17.44-37.021,30.706-60.959,39.805c-23.938,9.09-50.747,13.639-80.444,13.639
			c-21.52,0-40.726-2.783-57.618-8.351c-16.884-5.566-31.732-13.178-44.536-22.824c-12.805-9.655-23.66-21.068-32.567-34.237
			c-8.907-13.179-15.953-27.557-21.155-43.145L1712.085,704.346z"/>
	</g>
</g>
<g id="R">
	<g>
		<path fill="#535353" d="M1351.558,449.273l82.17,138.694h46.057V449.273h87.928v369.504h-169.574
			c-28.957,0-52.248-3.754-69.871-11.253c-17.614-7.507-31.312-17.189-41.085-29.048c-8.374-10.124-14.303-21.458-17.795-34.02
			c-3.483-12.561-5.233-25.121-5.233-37.683c0-30.013,7.851-53.303,23.552-69.871c15.701-16.576,35.77-28.18,60.188-34.804
			l-97.871-152.826H1351.558z M1415.933,656.007c-21.631,0-37.16,3.664-46.581,10.991c-5.233,3.835-8.897,8.546-10.99,14.131
			c-2.094,5.577-3.141,11.857-3.141,18.842c0,7.671,0.875,14.654,2.617,20.935c1.75,6.281,5.413,11.515,10.99,15.701
			c4.891,3.836,11.253,6.624,19.104,8.374c7.851,1.742,17.885,2.617,30.095,2.617h61.758v-91.591H1415.933z"/>
	</g>
</g>
<g id="A">
	<g>
		<path fill="#535353" d="M941.925,449.273L966,522.546h130.844l24.599-73.272h94.731l-137.647,369.504h-99.442L847.194,449.273
			H941.925z M984.842,588.491c4.89,14.998,9.42,28.786,13.607,41.347c4.187,12.562,8.112,24.599,11.776,36.113
			c3.664,11.515,7.245,22.767,10.729,33.758c3.492,10.991,6.804,22.243,9.944,33.758c3.492-11.515,7.065-22.857,10.729-34.02
			c3.664-11.171,7.417-22.595,11.253-34.281c3.843-11.694,7.94-23.813,12.299-36.375c4.367-12.561,8.987-25.997,13.869-40.3H984.842
			z"/>
	</g>
</g>
<g id="n">
	<g>
		<path fill="#535353" d="M717.134,818.777c-16.045-28.263-30.094-52.861-42.132-73.797c-12.038-20.935-22.415-39.253-31.141-54.954
			c-8.717-15.701-16.134-29.047-22.243-40.038c-6.101-10.991-11.334-20.592-15.701-28.786c-4.359-8.202-8.112-15.357-11.253-21.458
			c-3.14-6.108-6.101-12.128-8.897-18.057c0.704,10.116,1.309,20.755,1.832,31.926c0.523,11.163,0.875,25.384,1.047,42.655
			c0.18,17.271,0.352,38.812,0.523,64.637c0.18,25.817,0.262,58.438,0.262,97.872h-87.927V449.273h94.731
			c21.638,37.683,39.776,69.429,54.431,95.255c14.654,25.816,26.872,47.627,36.636,65.422c9.772,17.795,17.623,32.27,23.552,43.439
			c5.937,11.163,10.991,20.936,15.178,29.31c-0.344-9.421-0.695-19.545-1.047-30.355c-0.343-10.819-0.605-24.689-0.785-41.608
			c-0.172-16.929-0.262-38.207-0.262-63.853s0-58.185,0-97.609h87.927v369.504H717.134z"/>
	</g>
</g>
<g id="K">
	<g>
		<path fill="#535353" d="M206.396,449.273l91.795,160.243l53.592-61.02v-99.224h89.142v374.609h-89.142V666.822L217.539,823.883
			H109.826l126.815-145.917L98.683,449.273H206.396z"/>
	</g>
</g>
<g id="N_1_">
	<g>
		<path fill="#AA3120" d="M101.918-2.182c17.333,30.532,32.511,57.106,45.515,79.722c13.004,22.616,24.215,42.405,33.641,59.367
			c9.417,16.962,17.431,31.38,24.03,43.253c6.59,11.874,12.245,22.245,16.962,31.097c4.709,8.861,8.764,16.591,12.156,23.182
			c3.393,6.599,6.59,13.101,9.612,19.506c-0.76-10.928-1.414-22.421-1.979-34.489c-0.565-12.059-0.945-27.422-1.131-46.08
			c-0.194-18.658-0.38-41.928-0.565-69.827c-0.194-27.89-0.283-63.131-0.283-105.73h94.988v399.174H232.526
			c-23.376-40.709-42.97-75.004-58.802-102.903c-15.831-27.89-29.03-51.451-39.578-70.675
			c-10.557-19.224-19.038-34.861-25.443-46.929c-6.414-12.059-11.874-22.616-16.397-31.662c0.371,10.177,0.751,21.114,1.131,32.793
			c0.371,11.688,0.654,26.671,0.848,44.95c0.186,18.287,0.283,41.274,0.283,68.979c0,27.705,0,62.856,0,105.447H-0.419V-2.182
			H101.918z"/>
	</g>
</g>
<g id="a_1_">
	<g>
		<path fill="#AA3120" d="M636.903,396.992l-24.285-73.911H480.635l-24.812,73.911h-95.556L499.113,24.271H599.42l133.04,372.721
			H636.903z M593.613,256.562c-4.933-15.129-9.503-29.037-13.726-41.707c-4.224-12.67-8.183-24.813-11.879-36.427
			c-3.695-11.615-7.309-22.965-10.822-34.052c-3.522-11.087-6.863-22.438-10.031-34.052c-3.522,11.614-7.127,23.056-10.823,34.315
			c-3.696,11.269-7.482,22.792-11.351,34.58c-3.877,11.796-8.01,24.021-12.406,36.691c-4.405,12.67-9.066,26.223-13.99,40.651
			H593.613z"/>
	</g>
</g>
<g id="t">
	<g>
		<path fill="#AA3120" d="M776.117,396.992V98.182h-98.724V24.271h289.835v73.911h-99.251v298.811H776.117z"/>
	</g>
</g>
<g id="H">
	<g>
		<path fill="#AA3120" d="M1226.576,396.992V241.78h-143.07v155.212h-88.693V24.271h88.693v139.375h143.07V24.271h88.693v372.721
			H1226.576z"/>
	</g>
</g>
<g id="a">
	<g>
		<path fill="#AA3120" d="M1616.193,396.992l-24.285-73.911h-131.983l-24.813,73.911h-95.556l138.847-372.721h100.308
			l133.039,372.721H1616.193z M1572.902,256.562c-4.933-15.129-9.503-29.037-13.727-41.707s-8.183-24.813-11.878-36.427
			c-3.695-11.615-7.309-22.965-10.823-34.052c-3.522-11.087-6.863-22.438-10.03-34.052c-3.522,11.614-7.127,23.056-10.823,34.315
			c-3.695,11.269-7.481,22.792-11.351,34.58c-3.877,11.796-8.009,24.021-12.406,36.691c-4.404,12.67-9.065,26.223-13.99,40.651
			H1572.902z"/>
	</g>
</g>
<g id="N">
	<g>
		<path fill="#AA3120" d="M1830.754,24.271c16.185,28.508,30.356,53.321,42.499,74.438c12.143,21.118,22.61,39.595,31.412,55.433
			c8.793,15.838,16.275,29.3,22.437,40.387c6.154,11.086,11.434,20.771,15.839,29.036c4.396,8.274,8.183,15.492,11.351,21.646
			c3.167,6.162,6.153,12.233,8.975,18.213c-0.71-10.204-1.32-20.936-1.848-32.204c-0.528-11.26-0.883-25.605-1.057-43.027
			c-0.181-17.422-0.354-39.149-0.527-65.2c-0.182-26.042-0.264-58.947-0.264-98.724h88.692v372.721h-95.556
			c-21.827-38.011-40.123-70.034-54.905-96.084c-14.782-26.042-27.106-48.042-36.955-65.992
			c-9.857-17.95-17.777-32.55-23.758-43.818c-5.988-11.26-11.086-21.118-15.31-29.564c0.347,9.503,0.701,19.715,1.056,30.62
			c0.347,10.914,0.61,24.904,0.792,41.971c0.173,17.076,0.264,38.539,0.264,64.408c0,25.869,0,58.691,0,98.459h-88.692V24.271
			H1830.754z"/>
	</g>
</g>
</svg>
