<?xml version="1.0" encoding="utf-8"?>
<!-- Generator: Adobe Illustrator 15.0.2, SVG Export Plug-In . SVG Version: 6.00 Build 0)  -->
<!DOCTYPE svg PUBLIC "-//W3C//DTD SVG 1.1//EN" "http://www.w3.org/Graphics/SVG/1.1/DTD/svg11.dtd">
<svg version="1.1" id="Group_1_copy_51_1_" xmlns="http://www.w3.org/2000/svg" xmlns:xlink="http://www.w3.org/1999/xlink" x="0px"
	 y="0px" width="2048px" height="217px" viewBox="0 0 2048 217" enable-background="new 0 0 2048 217" xml:space="preserve">
<g id="C">
	<g>
		<path fill="#535353" d="M1916.198,144.736c1.896,8.706,5.544,16.044,10.946,22.008c5.401,5.963,12.937,8.944,22.604,8.944
			c8.343,0,15.495-1.469,21.466-4.401c5.971-2.938,10.901-7.055,14.784-12.353c3.888-5.302,6.779-11.691,8.672-19.167
			c1.897-7.48,2.844-15.667,2.844-24.562c0-9.846-0.995-18.791-2.985-26.835c-1.99-8.048-4.976-14.957-8.956-20.729
			c-3.98-5.777-9.001-10.223-15.069-13.347c-6.064-3.124-13.079-4.685-21.04-4.685c-9.854,0-17.863,2.981-24.024,8.945
			c-6.157,5.963-10.28,13.772-12.368,23.427l-45.207-16.754c6.068-18.173,16.206-32.327,30.423-42.452
			c14.216-10.129,31.559-15.192,52.03-15.192c15.167,0,28.716,2.414,40.657,7.241c11.941,4.828,22.084,11.829,30.423,21.013
			c8.343,9.18,14.74,20.396,19.191,33.65c4.456,13.249,6.682,28.205,6.682,44.866c0,16.279-2.319,30.811-6.966,43.589
			c-4.643,12.778-11.23,23.613-19.761,32.514c-8.529,8.896-18.907,15.662-31.133,20.303c-12.226,4.637-25.917,6.957-41.084,6.957
			c-10.991,0-20.8-1.42-29.428-4.259c-8.622-2.84-16.206-6.723-22.745-11.643c-6.539-4.925-12.084-10.746-16.633-17.464
			c-4.549-6.722-8.147-14.057-10.804-22.007L1916.198,144.736z"/>
	</g>
</g>
<g id="R">
	<g>
		<path fill="#535353" d="M1734.289,14.629l41.966,70.745h23.522V14.629h44.906v188.475h-86.604c-14.79,0-26.685-1.914-35.685-5.738
			c-8.997-3.83-15.992-8.77-20.983-14.816c-4.276-5.164-7.305-10.945-9.088-17.354c-1.779-6.406-2.673-12.814-2.673-19.221
			c0-15.309,4.009-27.189,12.028-35.641c8.019-8.454,18.268-14.373,30.739-17.752l-49.985-77.953H1734.289z M1767.167,120.078
			c-11.047,0-18.979,1.869-23.79,5.607c-2.673,1.955-4.544,4.359-5.613,7.207c-1.069,2.846-1.604,6.049-1.604,9.611
			c0,3.912,0.447,7.475,1.337,10.678c0.894,3.205,2.765,5.873,5.613,8.01c2.497,1.957,5.746,3.379,9.756,4.271
			c4.01,0.889,9.134,1.334,15.37,1.334h31.541v-46.719H1767.167z"/>
	</g>
</g>
<g id="A">
	<g>
		<path fill="#535353" d="M1525.078,14.629l12.296,37.375h66.824l12.563-37.375h48.381l-70.3,188.475h-50.787l-67.359-188.475
			H1525.078z M1546.996,85.641c2.498,7.65,4.812,14.683,6.95,21.09s4.143,12.546,6.014,18.419s3.701,11.613,5.48,17.221
			c1.783,5.605,3.475,11.346,5.078,17.219c1.783-5.873,3.608-11.66,5.479-17.354c1.871-5.697,3.788-11.525,5.747-17.486
			c1.963-5.965,4.056-12.146,6.281-18.553c2.23-6.407,4.591-13.261,7.084-20.556H1546.996z"/>
	</g>
</g>
<g id="n">
	<g>
		<path fill="#535353" d="M1410.277,203.104c-8.194-14.416-15.37-26.963-21.518-37.641c-6.148-10.68-11.448-20.023-15.904-28.031
			c-4.452-8.01-8.24-14.816-11.36-20.422c-3.116-5.607-5.789-10.504-8.02-14.684c-2.226-4.184-4.143-7.833-5.746-10.945
			c-1.604-3.116-3.116-6.186-4.545-9.21c0.359,5.16,0.669,10.587,0.936,16.285c0.268,5.694,0.447,12.947,0.535,21.757
			c0.092,8.809,0.18,19.797,0.268,32.969c0.092,13.17,0.133,29.809,0.133,49.922h-44.906V14.629h48.382
			c11.051,19.221,20.314,35.415,27.799,48.587c7.484,13.168,13.724,24.293,18.711,33.37c4.991,9.077,9,16.46,12.028,22.158
			c3.032,5.693,5.613,10.678,7.752,14.949c-0.176-4.805-0.355-9.969-0.535-15.482c-0.175-5.52-0.309-12.593-0.4-21.224
			c-0.088-8.634-0.134-19.488-0.134-32.569s0-29.679,0-49.789h44.906v188.475H1410.277z"/>
	</g>
</g>
<g id="K">
	<g>
		<path fill="#535353" d="M1149.434,14.629l46.882,81.737l27.37-31.125V14.629h45.526v191.08h-45.526v-80.113l-68.562,80.113
			h-55.012l64.768-74.43l-70.458-116.65H1149.434z"/>
	</g>
</g>
<g id="N_1_">
	<g>
		<path fill="#AA3120" d="M52.083-0.462c8.853,15.574,16.604,29.128,23.246,40.665s12.367,21.63,17.181,30.282
			c4.81,8.652,8.902,16.006,12.272,22.063c3.366,6.056,6.254,11.347,8.663,15.862c2.405,4.52,4.476,8.463,6.208,11.824
			c1.732,3.366,3.366,6.683,4.909,9.95c-0.388-5.574-0.722-11.438-1.011-17.593c-0.289-6.151-0.482-13.987-0.577-23.504
			c-0.1-9.517-0.194-21.387-0.289-35.617c-0.099-14.227-0.144-32.202-0.144-53.931h48.512v203.61h-52.266
			c-11.939-20.765-21.946-38.258-30.032-52.488c-8.085-14.227-14.826-26.245-20.213-36.051c-5.392-9.805-9.723-17.781-12.994-23.937
			c-3.275-6.151-6.064-11.536-8.374-16.15c0.189,5.191,0.383,10.77,0.578,16.728c0.189,5.961,0.333,13.604,0.433,22.927
			c0.095,9.328,0.144,21.054,0.144,35.186c0,14.131,0,32.062,0,53.786H-0.183V-0.462H52.083z"/>
	</g>
</g>
<g id="a_1_">
	<g>
		<path fill="#AA3120" d="M325.313,203.148l-12.403-37.7h-67.407l-12.673,37.7h-48.802l70.912-190.117h51.229l67.946,190.117
			H325.313z M303.204,131.518c-2.52-7.717-4.854-14.811-7.011-21.273c-2.157-6.463-4.179-12.657-6.066-18.581
			s-3.732-11.714-5.527-17.369c-1.799-5.655-3.505-11.444-5.123-17.369c-1.799,5.924-3.64,11.76-5.527,17.503
			c-1.887,5.748-3.821,11.626-5.797,17.639c-1.98,6.017-4.091,12.252-6.336,18.715c-2.25,6.463-4.63,13.377-7.145,20.735H303.204z"
			/>
	</g>
</g>
<g id="t">
	<g>
		<path fill="#AA3120" d="M396.41,203.148V50.731h-50.42v-37.7h148.025v37.7h-50.69v152.417H396.41z"/>
	</g>
</g>
<g id="H">
	<g>
		<path fill="#AA3120" d="M626.473,203.148v-79.171h-73.069v79.171h-45.297V13.031h45.297v71.092h73.069V13.031h45.297v190.117
			H626.473z"/>
	</g>
</g>
<g id="a">
	<g>
		<path fill="#AA3120" d="M825.454,203.148l-12.403-37.7h-67.407l-12.673,37.7h-48.802l70.912-190.117h51.229l67.946,190.117
			H825.454z M803.345,131.518c-2.52-7.717-4.854-14.811-7.011-21.273c-2.157-6.463-4.179-12.657-6.066-18.581
			s-3.732-11.714-5.527-17.369c-1.799-5.655-3.505-11.444-5.123-17.369c-1.799,5.924-3.64,11.76-5.527,17.503
			c-1.887,5.748-3.821,11.626-5.797,17.639c-1.98,6.017-4.091,12.252-6.336,18.715c-2.25,6.463-4.63,13.377-7.145,20.735H803.345z"
			/>
	</g>
</g>
<g id="N">
	<g>
		<path fill="#AA3120" d="M935.036,13.031c8.266,14.542,15.504,27.198,21.705,37.97c6.202,10.771,11.548,20.196,16.043,28.275
			c4.491,8.079,8.312,14.946,11.459,20.601c3.143,5.655,5.839,10.595,8.089,14.811c2.246,4.22,4.179,7.901,5.797,11.041
			c1.618,3.143,3.143,6.239,4.584,9.29c-0.362-5.205-0.674-10.679-0.944-16.427c-0.27-5.743-0.451-13.06-0.54-21.947
			c-0.092-8.887-0.181-19.969-0.27-33.257c-0.093-13.284-0.135-30.068-0.135-50.357h45.298v190.117H997.32
			c-11.147-19.389-20.492-35.723-28.042-49.011c-7.549-13.283-13.844-24.505-18.874-33.661c-5.035-9.155-9.079-16.603-12.133-22.351
			c-3.059-5.743-5.662-10.771-7.819-15.08c0.177,4.847,0.358,10.056,0.539,15.619c0.177,5.567,0.312,12.703,0.405,21.409
			c0.088,8.71,0.135,19.658,0.135,32.853c0,13.195,0,29.938,0,50.223h-45.297V13.031H935.036z"/>
	</g>
</g>
</svg>
